<mxfile host="app.diagrams.net" modified="2023-09-15T15:09:34.688Z" agent="Mozilla/5.0 (Windows NT 10.0; Win64; x64) AppleWebKit/537.36 (KHTML, like Gecko) Chrome/114.0.0.0 Safari/537.36 OPR/100.0.0.0 (Edition std-1)" etag="M4T5I5bXKYpzn7SI6_n8" version="21.7.5" type="device">
  <diagram name="Seite-1" id="OSSp_jROWj6gcA-T7RJQ">
    <mxGraphModel dx="1602" dy="870" grid="1" gridSize="10" guides="1" tooltips="1" connect="1" arrows="1" fold="1" page="1" pageScale="1" pageWidth="827" pageHeight="1169" math="0" shadow="0">
      <root>
        <mxCell id="0" />
        <mxCell id="1" parent="0" />
        <mxCell id="DqaLIjd_5yo11S-I0duc-20" value="" style="rounded=0;whiteSpace=wrap;html=1;" parent="1" vertex="1">
          <mxGeometry x="40" y="120" width="250" height="280" as="geometry" />
        </mxCell>
        <mxCell id="DqaLIjd_5yo11S-I0duc-10" value="Tile&lt;br&gt;Local&lt;br&gt;Memory" style="rounded=0;whiteSpace=wrap;html=1;" parent="1" vertex="1">
          <mxGeometry x="180" y="330" width="50" height="50" as="geometry" />
        </mxCell>
        <mxCell id="DqaLIjd_5yo11S-I0duc-11" value="TLM Arbiter" style="rounded=0;whiteSpace=wrap;html=1;" parent="1" vertex="1">
          <mxGeometry x="60" y="330" width="80" height="50" as="geometry" />
        </mxCell>
        <mxCell id="DqaLIjd_5yo11S-I0duc-12" value="" style="endArrow=classic;startArrow=classic;html=1;rounded=0;entryX=0;entryY=0.5;entryDx=0;entryDy=0;exitX=1;exitY=0.5;exitDx=0;exitDy=0;" parent="1" source="DqaLIjd_5yo11S-I0duc-11" target="DqaLIjd_5yo11S-I0duc-10" edge="1">
          <mxGeometry width="50" height="50" relative="1" as="geometry">
            <mxPoint x="50" y="540" as="sourcePoint" />
            <mxPoint x="100" y="490" as="targetPoint" />
          </mxGeometry>
        </mxCell>
        <mxCell id="DqaLIjd_5yo11S-I0duc-14" value="Memory&lt;br&gt;Controller" style="rounded=0;whiteSpace=wrap;html=1;" parent="1" vertex="1">
          <mxGeometry x="60" y="240" width="80" height="50" as="geometry" />
        </mxCell>
        <mxCell id="DqaLIjd_5yo11S-I0duc-15" value="" style="endArrow=classic;startArrow=classic;html=1;rounded=0;" parent="1" source="DqaLIjd_5yo11S-I0duc-14" target="DqaLIjd_5yo11S-I0duc-11" edge="1">
          <mxGeometry width="50" height="50" relative="1" as="geometry">
            <mxPoint x="40" y="620" as="sourcePoint" />
            <mxPoint x="90" y="570" as="targetPoint" />
          </mxGeometry>
        </mxCell>
        <mxCell id="DqaLIjd_5yo11S-I0duc-16" value="Advanced High Performance Bus (AHB)" style="rounded=0;whiteSpace=wrap;html=1;" parent="1" vertex="1">
          <mxGeometry x="40" y="440" width="390" height="40" as="geometry" />
        </mxCell>
        <mxCell id="DqaLIjd_5yo11S-I0duc-18" value="Reconfigurable&lt;br&gt;Fabric" style="rounded=0;whiteSpace=wrap;html=1;" parent="1" vertex="1">
          <mxGeometry x="180" y="240" width="90" height="50" as="geometry" />
        </mxCell>
        <mxCell id="DqaLIjd_5yo11S-I0duc-19" value="" style="endArrow=classic;startArrow=classic;html=1;rounded=0;" parent="1" source="DqaLIjd_5yo11S-I0duc-14" target="DqaLIjd_5yo11S-I0duc-18" edge="1">
          <mxGeometry width="50" height="50" relative="1" as="geometry">
            <mxPoint x="-50" y="180" as="sourcePoint" />
            <mxPoint y="130" as="targetPoint" />
          </mxGeometry>
        </mxCell>
        <mxCell id="DqaLIjd_5yo11S-I0duc-21" value="modifizierter&lt;br&gt;Leon3&lt;br&gt;Kern" style="rounded=0;whiteSpace=wrap;html=1;" parent="1" vertex="1">
          <mxGeometry x="52.5" y="150" width="95" height="50" as="geometry" />
        </mxCell>
        <mxCell id="DqaLIjd_5yo11S-I0duc-22" value="" style="endArrow=classic;startArrow=classic;html=1;rounded=0;" parent="1" source="DqaLIjd_5yo11S-I0duc-14" target="DqaLIjd_5yo11S-I0duc-21" edge="1">
          <mxGeometry width="50" height="50" relative="1" as="geometry">
            <mxPoint x="-180" y="290" as="sourcePoint" />
            <mxPoint x="-130" y="240" as="targetPoint" />
          </mxGeometry>
        </mxCell>
        <mxCell id="DqaLIjd_5yo11S-I0duc-23" value="i-Core" style="text;html=1;strokeColor=none;fillColor=none;align=center;verticalAlign=middle;whiteSpace=wrap;rounded=0;" parent="1" vertex="1">
          <mxGeometry x="135" y="120" width="60" height="30" as="geometry" />
        </mxCell>
        <mxCell id="DqaLIjd_5yo11S-I0duc-24" value="" style="endArrow=classic;startArrow=classic;html=1;rounded=0;" parent="1" target="DqaLIjd_5yo11S-I0duc-11" edge="1">
          <mxGeometry width="50" height="50" relative="1" as="geometry">
            <mxPoint x="100" y="440" as="sourcePoint" />
            <mxPoint x="200" y="320" as="targetPoint" />
          </mxGeometry>
        </mxCell>
        <mxCell id="DqaLIjd_5yo11S-I0duc-25" value="" style="rounded=0;whiteSpace=wrap;html=1;" parent="1" vertex="1">
          <mxGeometry x="330" y="120" width="100" height="280" as="geometry" />
        </mxCell>
        <mxCell id="DqaLIjd_5yo11S-I0duc-26" value="SI Execution Controller" style="text;html=1;strokeColor=none;fillColor=none;align=center;verticalAlign=middle;whiteSpace=wrap;rounded=0;" parent="1" vertex="1">
          <mxGeometry x="345" y="250" width="70" height="30" as="geometry" />
        </mxCell>
        <mxCell id="DqaLIjd_5yo11S-I0duc-27" value="" style="endArrow=classic;startArrow=classic;html=1;rounded=0;" parent="1" source="DqaLIjd_5yo11S-I0duc-18" edge="1">
          <mxGeometry width="50" height="50" relative="1" as="geometry">
            <mxPoint x="560" y="220" as="sourcePoint" />
            <mxPoint x="330" y="265" as="targetPoint" />
          </mxGeometry>
        </mxCell>
        <mxCell id="DqaLIjd_5yo11S-I0duc-30" value="" style="endArrow=classic;startArrow=classic;html=1;rounded=0;" parent="1" target="DqaLIjd_5yo11S-I0duc-25" edge="1">
          <mxGeometry width="50" height="50" relative="1" as="geometry">
            <mxPoint x="380" y="440" as="sourcePoint" />
            <mxPoint x="330" y="550" as="targetPoint" />
          </mxGeometry>
        </mxCell>
        <mxCell id="DqaLIjd_5yo11S-I0duc-33" value="" style="endArrow=classic;startArrow=classic;html=1;rounded=0;exitX=0.5;exitY=0;exitDx=0;exitDy=0;entryX=0.25;entryY=0;entryDx=0;entryDy=0;" parent="1" source="DqaLIjd_5yo11S-I0duc-21" target="DqaLIjd_5yo11S-I0duc-25" edge="1">
          <mxGeometry width="50" height="50" relative="1" as="geometry">
            <mxPoint x="190" y="120" as="sourcePoint" />
            <mxPoint x="360" y="120" as="targetPoint" />
            <Array as="points">
              <mxPoint x="100" y="90" />
              <mxPoint x="355" y="90" />
            </Array>
          </mxGeometry>
        </mxCell>
      </root>
    </mxGraphModel>
  </diagram>
</mxfile>
